<?xml version="1.0" standalone="no"?>
<!DOCTYPE svg PUBLIC "-//W3C//DTD SVG 20010904//EN"
 "http://www.w3.org/TR/2001/REC-SVG-20010904/DTD/svg10.dtd">
<svg version="1.0" xmlns="http://www.w3.org/2000/svg"
 width="1000.000000pt" height="300.000000pt" viewBox="0 0 1000.000000 300.000000"
 preserveAspectRatio="xMidYMid meet">

<g transform="translate(0.000000,300.000000) scale(0.100000,-0.100000)"
fill="#000000" stroke="none">
<path d="M6590 2500 l0 -151 -47 28 c-40 23 -59 28 -118 28 -170 0 -265 -120
-265 -336 0 -156 48 -257 144 -304 91 -45 202 -32 267 31 l27 25 6 -35 c7 -34
9 -36 46 -36 l40 0 0 450 0 450 -50 0 -50 0 0 -150z m-60 -200 c61 -31 60 -29
60 -216 l0 -173 -34 -35 c-42 -41 -95 -60 -149 -53 -53 7 -87 33 -114 87 -20
38 -23 60 -23 160 0 100 3 122 23 160 12 24 34 52 48 63 49 36 129 39 189 7z"/>
<path d="M7220 2200 l0 -450 40 0 c34 0 41 4 46 25 7 27 18 32 30 14 14 -23
96 -50 150 -50 69 0 153 38 189 85 57 75 70 121 70 256 0 121 -1 128 -33 192
-38 77 -95 123 -170 134 -58 9 -137 -9 -178 -41 -18 -14 -35 -25 -38 -25 -3 0
-6 70 -6 155 l0 155 -50 0 -50 0 0 -450z m364 92 c41 -37 56 -91 56 -213 0
-103 -3 -120 -25 -165 -52 -105 -184 -125 -272 -42 -22 21 -23 28 -23 193 l0
171 28 26 c71 67 178 80 236 30z"/>
<path d="M2110 2176 l0 -426 55 0 54 0 3 150 3 150 105 4 c236 10 330 87 330
271 0 135 -34 199 -129 244 -53 25 -66 26 -238 29 l-183 4 0 -426z m373 314
c49 -24 71 -73 71 -159 0 -140 -50 -182 -226 -189 l-108 -5 0 185 c0 102 2
187 4 189 10 10 233 -8 259 -21z"/>
<path d="M2943 2396 c-65 -21 -109 -53 -142 -102 -41 -63 -55 -132 -49 -255 4
-86 9 -113 30 -154 51 -99 131 -146 248 -146 132 -1 217 47 267 149 25 53 27
66 28 182 0 110 -3 131 -24 177 -26 59 -82 115 -138 138 -53 22 -169 28 -220
11z m207 -106 c52 -37 70 -92 70 -216 -1 -151 -31 -213 -119 -243 -91 -30
-180 4 -221 84 -22 44 -25 62 -25 160 0 99 3 114 25 154 14 24 37 53 52 64 53
39 160 38 218 -3z"/>
<path d="M4570 2395 c-63 -20 -124 -75 -157 -143 -26 -53 -28 -66 -28 -177 0
-104 3 -127 23 -171 29 -63 82 -116 145 -144 88 -39 234 -23 323 35 25 16 25
18 -12 73 -2 2 -32 -8 -68 -22 -97 -39 -190 -31 -250 22 -28 25 -56 91 -56
135 l0 37 214 0 214 0 7 28 c10 45 -14 162 -43 216 -57 105 -185 150 -312 111z
m172 -91 c36 -18 66 -59 79 -106 21 -81 25 -79 -164 -81 l-167 -2 0 35 c0 45
37 118 71 143 50 36 122 40 181 11z"/>
<path d="M5311 2398 c-31 -7 -56 -22 -86 -54 l-43 -44 -7 45 c-6 45 -7 45 -46
45 l-39 0 0 -320 0 -320 50 0 50 0 0 199 c0 198 0 199 28 252 32 62 90 99 157
99 l43 0 7 46 c3 25 5 47 3 49 -11 9 -80 11 -117 3z"/>
<path d="M5680 2391 c-73 -26 -140 -97 -164 -175 -25 -79 -19 -251 11 -316 72
-156 279 -210 446 -117 42 23 44 32 18 66 l-18 24 -44 -21 c-140 -67 -277 -23
-314 101 -28 94 -45 87 206 87 l222 0 -6 88 c-6 97 -22 144 -69 197 -66 76
-184 103 -288 66z m194 -95 c34 -21 65 -84 68 -135 l3 -42 -170 0 c-108 0
-171 4 -173 10 -8 24 30 121 58 150 50 49 153 58 214 17z"/>
<path d="M3440 2381 c0 -5 32 -146 70 -315 39 -168 70 -308 70 -311 0 -3 31
-5 68 -5 l69 0 63 248 c72 282 76 293 84 272 3 -8 33 -129 66 -267 l62 -253
68 0 69 0 10 38 c17 63 131 580 131 591 0 6 -21 11 -49 11 l-49 0 -10 -47 c-6
-27 -30 -146 -53 -265 -24 -119 -46 -215 -48 -212 -3 3 -35 121 -71 262 l-66
257 -66 3 -65 3 -57 -228 c-74 -295 -77 -306 -81 -301 -3 2 -27 114 -55 249
-28 134 -53 252 -56 262 -4 13 -16 17 -55 17 -27 0 -49 -4 -49 -9z"/>
<path d="M7840 2383 c0 -5 48 -149 106 -320 99 -290 108 -313 130 -313 l23 0
-19 -54 c-10 -30 -23 -63 -29 -75 -17 -31 -67 -53 -114 -49 -39 3 -41 2 -48
-30 -5 -26 -3 -35 10 -40 32 -13 126 -6 158 11 64 34 81 72 204 454 65 202
121 379 124 395 7 28 6 28 -44 28 -48 0 -50 -1 -59 -32 -59 -210 -157 -516
-162 -506 -3 7 -44 131 -91 275 l-84 263 -52 0 c-29 0 -53 -3 -53 -7z"/>
<path d="M5271 1305 c-169 -38 -284 -140 -331 -293 -22 -72 -27 -225 -9 -301
36 -160 160 -280 329 -322 88 -22 262 -16 340 10 176 60 275 183 302 372 28
195 -54 391 -199 476 -107 62 -300 88 -432 58z m235 -206 c92 -24 154 -108
162 -220 13 -187 -82 -299 -253 -298 -160 0 -250 80 -262 233 -18 219 134 342
353 285z"/>
<path d="M8114 1311 c-128 -21 -222 -79 -266 -165 -26 -51 -35 -155 -18 -216
17 -63 82 -124 154 -145 30 -9 126 -24 213 -34 171 -20 219 -35 229 -76 17
-67 -81 -113 -214 -101 -42 4 -90 13 -107 20 -34 14 -75 60 -75 82 0 11 -24
14 -111 14 l-112 0 6 -49 c22 -183 183 -277 457 -266 155 6 249 41 317 119 50
56 67 115 61 201 -9 106 -67 180 -169 214 -19 6 -107 20 -195 30 -180 21 -230
37 -239 74 -14 56 36 92 144 103 85 9 153 -10 191 -52 16 -19 30 -39 30 -44 0
-6 48 -10 115 -10 l116 0 -7 38 c-19 105 -107 204 -216 242 -70 24 -219 34
-304 21z"/>
<path d="M870 1086 c-190 -118 -371 -231 -402 -250 l-58 -36 0 -201 c0 -161 3
-200 13 -196 7 3 187 114 400 246 l388 242 215 0 c206 0 234 -3 234 -20 0 -5
-89 -61 -197 -126 -109 -65 -208 -127 -220 -138 -21 -19 -23 -30 -23 -119 l0
-98 248 2 247 3 3 443 2 442 -26 10 c-14 6 -128 10 -252 10 l-228 0 -344 -214z"/>
<path d="M2450 1278 c-38 -84 -336 -874 -333 -880 8 -14 221 -9 230 4 4 7 20
44 34 83 l27 70 192 0 193 0 30 -82 30 -83 118 0 c87 0 119 3 119 12 0 16
-331 869 -343 886 -7 8 -49 12 -148 12 -135 0 -140 -1 -149 -22z m215 -358
c30 -84 53 -155 51 -157 -2 -3 -55 -4 -118 -4 -87 0 -113 3 -112 13 2 16 102
296 111 311 5 8 8 8 10 0 2 -6 28 -79 58 -163z"/>
<path d="M3124 1286 c-3 -8 -4 -158 -2 -333 4 -350 7 -366 69 -444 79 -99 275
-157 446 -130 114 18 181 48 245 112 87 86 89 98 86 485 l-3 319 -110 0 -110
0 -5 -312 c-5 -296 -6 -313 -26 -340 -34 -46 -69 -58 -171 -58 -99 0 -123 10
-167 69 -20 26 -21 44 -26 334 l-5 307 -108 3 c-86 2 -108 0 -113 -12z"/>
<path d="M4077 1293 c-4 -3 -7 -48 -7 -100 l0 -93 145 0 145 0 2 -352 3 -353
110 0 110 0 5 350 5 350 143 3 143 3 -3 97 -3 97 -396 3 c-217 1 -398 -1 -402
-5z"/>
<path d="M6035 1288 c-3 -7 -4 -211 -3 -453 l3 -440 205 -3 c231 -3 370 9 440
39 58 25 113 80 139 139 54 123 54 427 0 549 -46 105 -130 154 -292 171 -140
15 -486 13 -492 -2z m518 -211 c42 -27 56 -58 67 -142 12 -95 -1 -223 -27
-268 -37 -63 -61 -72 -204 -76 l-129 -3 0 257 0 257 133 -4 c106 -2 138 -7
160 -21z"/>
<path d="M6993 1293 c-10 -4 -13 -103 -13 -449 l0 -444 23 -5 c12 -3 175 -4
362 -3 l340 3 3 98 3 97 -246 0 -245 0 0 80 0 80 195 0 195 0 0 100 0 100
-195 0 -195 0 0 75 0 75 245 0 246 0 -3 98 -3 97 -350 2 c-192 1 -356 -1 -362
-4z"/>
<path d="M8775 1288 c-3 -7 -4 -211 -3 -453 l3 -440 110 0 110 0 5 164 5 164
144 -159 c79 -87 151 -162 160 -166 20 -8 281 -10 281 -2 0 4 -62 72 -137 152
-76 81 -169 179 -206 219 l-69 72 204 221 c112 122 205 226 206 231 2 5 -52 9
-129 9 l-132 0 -39 -42 c-22 -24 -94 -105 -161 -180 l-122 -137 -5 177 -5 177
-108 3 c-80 2 -109 -1 -112 -10z"/>
</g>
</svg>
